<mxfile host="app.diagrams.net" modified="2021-03-06T05:44:29.299Z" agent="5.0 (Windows NT 10.0; Win64; x64) AppleWebKit/537.36 (KHTML, like Gecko) Chrome/88.0.4324.190 Safari/537.36" etag="o5hXCOXPcNK1f728p-ot" version="14.4.3" type="github">
  <diagram id="31m9Jq3Kzp0DEFLOu5cS" name="第 1 页">
    <mxGraphModel dx="981" dy="553" grid="1" gridSize="10" guides="1" tooltips="1" connect="1" arrows="1" fold="1" page="1" pageScale="1" pageWidth="827" pageHeight="1169" math="0" shadow="0">
      <root>
        <mxCell id="0" />
        <mxCell id="1" parent="0" />
        <mxCell id="COjROIzj7fQn3aTDEkL4-121" value="" style="rounded=1;whiteSpace=wrap;html=1;fillColor=none;dashed=1;strokeColor=#FF6666;" vertex="1" parent="1">
          <mxGeometry x="400" y="80" width="140" height="290" as="geometry" />
        </mxCell>
        <mxCell id="COjROIzj7fQn3aTDEkL4-10" value="" style="rounded=1;whiteSpace=wrap;html=1;fillColor=none;" vertex="1" parent="1">
          <mxGeometry x="132.69" y="181.7" width="90" height="78.18" as="geometry" />
        </mxCell>
        <mxCell id="COjROIzj7fQn3aTDEkL4-1" value="" style="whiteSpace=wrap;html=1;aspect=fixed;" vertex="1" parent="1">
          <mxGeometry x="50" y="192.79348837209304" width="56" height="56" as="geometry" />
        </mxCell>
        <mxCell id="COjROIzj7fQn3aTDEkL4-2" value="输入" style="text;html=1;align=center;verticalAlign=middle;resizable=0;points=[];autosize=1;fontSize=10.5;" vertex="1" parent="1">
          <mxGeometry x="58" y="170" width="40" height="20" as="geometry" />
        </mxCell>
        <mxCell id="COjROIzj7fQn3aTDEkL4-3" value="" style="endArrow=classic;html=1;" edge="1" parent="1">
          <mxGeometry width="50" height="50" relative="1" as="geometry">
            <mxPoint x="110" y="220.29" as="sourcePoint" />
            <mxPoint x="130" y="220" as="targetPoint" />
          </mxGeometry>
        </mxCell>
        <mxCell id="COjROIzj7fQn3aTDEkL4-11" value="&lt;font style=&quot;font-size: 10.5px&quot;&gt;VGGNet-16&lt;/font&gt;" style="text;html=1;align=center;verticalAlign=middle;resizable=0;points=[];autosize=1;fontSize=10.5;" vertex="1" parent="1">
          <mxGeometry x="140" y="150" width="80" height="20" as="geometry" />
        </mxCell>
        <mxCell id="COjROIzj7fQn3aTDEkL4-12" value="" style="shape=table;html=1;whiteSpace=wrap;startSize=0;container=1;collapsible=0;childLayout=tableLayout;" vertex="1" parent="1">
          <mxGeometry x="240" y="150" width="120" height="120" as="geometry" />
        </mxCell>
        <mxCell id="COjROIzj7fQn3aTDEkL4-13" value="" style="shape=partialRectangle;html=1;whiteSpace=wrap;collapsible=0;dropTarget=0;pointerEvents=0;fillColor=none;top=0;left=0;bottom=0;right=0;points=[[0,0.5],[1,0.5]];portConstraint=eastwest;" vertex="1" parent="COjROIzj7fQn3aTDEkL4-12">
          <mxGeometry width="120" height="17" as="geometry" />
        </mxCell>
        <mxCell id="COjROIzj7fQn3aTDEkL4-14" value="" style="shape=partialRectangle;html=1;whiteSpace=wrap;connectable=0;overflow=hidden;fillColor=none;top=0;left=0;bottom=0;right=0;" vertex="1" parent="COjROIzj7fQn3aTDEkL4-13">
          <mxGeometry width="17" height="17" as="geometry" />
        </mxCell>
        <mxCell id="COjROIzj7fQn3aTDEkL4-15" value="" style="shape=partialRectangle;html=1;whiteSpace=wrap;connectable=0;overflow=hidden;fillColor=none;top=0;left=0;bottom=0;right=0;" vertex="1" parent="COjROIzj7fQn3aTDEkL4-13">
          <mxGeometry x="17" width="17" height="17" as="geometry" />
        </mxCell>
        <mxCell id="COjROIzj7fQn3aTDEkL4-16" value="" style="shape=partialRectangle;html=1;whiteSpace=wrap;connectable=0;overflow=hidden;fillColor=none;top=0;left=0;bottom=0;right=0;" vertex="1" parent="COjROIzj7fQn3aTDEkL4-13">
          <mxGeometry x="34" width="17" height="17" as="geometry" />
        </mxCell>
        <mxCell id="COjROIzj7fQn3aTDEkL4-17" value="" style="shape=partialRectangle;html=1;whiteSpace=wrap;connectable=0;overflow=hidden;fillColor=none;top=0;left=0;bottom=0;right=0;" vertex="1" parent="COjROIzj7fQn3aTDEkL4-13">
          <mxGeometry x="51" width="18" height="17" as="geometry" />
        </mxCell>
        <mxCell id="COjROIzj7fQn3aTDEkL4-18" value="" style="shape=partialRectangle;html=1;whiteSpace=wrap;connectable=0;overflow=hidden;fillColor=none;top=0;left=0;bottom=0;right=0;" vertex="1" parent="COjROIzj7fQn3aTDEkL4-13">
          <mxGeometry x="69" width="17" height="17" as="geometry" />
        </mxCell>
        <mxCell id="COjROIzj7fQn3aTDEkL4-19" value="" style="shape=partialRectangle;html=1;whiteSpace=wrap;connectable=0;overflow=hidden;fillColor=none;top=0;left=0;bottom=0;right=0;" vertex="1" parent="COjROIzj7fQn3aTDEkL4-13">
          <mxGeometry x="86" width="17" height="17" as="geometry" />
        </mxCell>
        <mxCell id="COjROIzj7fQn3aTDEkL4-20" value="" style="shape=partialRectangle;html=1;whiteSpace=wrap;connectable=0;overflow=hidden;fillColor=none;top=0;left=0;bottom=0;right=0;" vertex="1" parent="COjROIzj7fQn3aTDEkL4-13">
          <mxGeometry x="103" width="17" height="17" as="geometry" />
        </mxCell>
        <mxCell id="COjROIzj7fQn3aTDEkL4-21" value="" style="shape=partialRectangle;html=1;whiteSpace=wrap;collapsible=0;dropTarget=0;pointerEvents=0;fillColor=none;top=0;left=0;bottom=0;right=0;points=[[0,0.5],[1,0.5]];portConstraint=eastwest;" vertex="1" parent="COjROIzj7fQn3aTDEkL4-12">
          <mxGeometry y="17" width="120" height="17" as="geometry" />
        </mxCell>
        <mxCell id="COjROIzj7fQn3aTDEkL4-22" value="" style="shape=partialRectangle;html=1;whiteSpace=wrap;connectable=0;overflow=hidden;fillColor=none;top=0;left=0;bottom=0;right=0;" vertex="1" parent="COjROIzj7fQn3aTDEkL4-21">
          <mxGeometry width="17" height="17" as="geometry" />
        </mxCell>
        <mxCell id="COjROIzj7fQn3aTDEkL4-23" value="" style="shape=partialRectangle;html=1;whiteSpace=wrap;connectable=0;overflow=hidden;fillColor=none;top=0;left=0;bottom=0;right=0;" vertex="1" parent="COjROIzj7fQn3aTDEkL4-21">
          <mxGeometry x="17" width="17" height="17" as="geometry" />
        </mxCell>
        <mxCell id="COjROIzj7fQn3aTDEkL4-24" value="" style="shape=partialRectangle;html=1;whiteSpace=wrap;connectable=0;overflow=hidden;fillColor=#fff2cc;top=0;left=0;bottom=0;right=0;strokeColor=#d6b656;" vertex="1" parent="COjROIzj7fQn3aTDEkL4-21">
          <mxGeometry x="34" width="17" height="17" as="geometry" />
        </mxCell>
        <mxCell id="COjROIzj7fQn3aTDEkL4-25" value="" style="shape=partialRectangle;html=1;whiteSpace=wrap;connectable=0;overflow=hidden;fillColor=none;top=0;left=0;bottom=0;right=0;" vertex="1" parent="COjROIzj7fQn3aTDEkL4-21">
          <mxGeometry x="51" width="18" height="17" as="geometry" />
        </mxCell>
        <mxCell id="COjROIzj7fQn3aTDEkL4-26" value="" style="shape=partialRectangle;html=1;whiteSpace=wrap;connectable=0;overflow=hidden;fillColor=none;top=0;left=0;bottom=0;right=0;" vertex="1" parent="COjROIzj7fQn3aTDEkL4-21">
          <mxGeometry x="69" width="17" height="17" as="geometry" />
        </mxCell>
        <mxCell id="COjROIzj7fQn3aTDEkL4-27" value="" style="shape=partialRectangle;html=1;whiteSpace=wrap;connectable=0;overflow=hidden;fillColor=none;top=0;left=0;bottom=0;right=0;" vertex="1" parent="COjROIzj7fQn3aTDEkL4-21">
          <mxGeometry x="86" width="17" height="17" as="geometry" />
        </mxCell>
        <mxCell id="COjROIzj7fQn3aTDEkL4-28" value="" style="shape=partialRectangle;html=1;whiteSpace=wrap;connectable=0;overflow=hidden;fillColor=none;top=0;left=0;bottom=0;right=0;" vertex="1" parent="COjROIzj7fQn3aTDEkL4-21">
          <mxGeometry x="103" width="17" height="17" as="geometry" />
        </mxCell>
        <mxCell id="COjROIzj7fQn3aTDEkL4-29" value="" style="shape=partialRectangle;html=1;whiteSpace=wrap;collapsible=0;dropTarget=0;pointerEvents=0;fillColor=none;top=0;left=0;bottom=0;right=0;points=[[0,0.5],[1,0.5]];portConstraint=eastwest;" vertex="1" parent="COjROIzj7fQn3aTDEkL4-12">
          <mxGeometry y="34" width="120" height="17" as="geometry" />
        </mxCell>
        <mxCell id="COjROIzj7fQn3aTDEkL4-30" value="" style="shape=partialRectangle;html=1;whiteSpace=wrap;connectable=0;overflow=hidden;fillColor=none;top=0;left=0;bottom=0;right=0;" vertex="1" parent="COjROIzj7fQn3aTDEkL4-29">
          <mxGeometry width="17" height="17" as="geometry" />
        </mxCell>
        <mxCell id="COjROIzj7fQn3aTDEkL4-31" value="" style="shape=partialRectangle;html=1;whiteSpace=wrap;connectable=0;overflow=hidden;fillColor=none;top=0;left=0;bottom=0;right=0;" vertex="1" parent="COjROIzj7fQn3aTDEkL4-29">
          <mxGeometry x="17" width="17" height="17" as="geometry" />
        </mxCell>
        <mxCell id="COjROIzj7fQn3aTDEkL4-32" value="" style="shape=partialRectangle;html=1;whiteSpace=wrap;connectable=0;overflow=hidden;top=0;left=0;bottom=0;right=0;strokeColor=#d79b00;fillColor=none;" vertex="1" parent="COjROIzj7fQn3aTDEkL4-29">
          <mxGeometry x="34" width="17" height="17" as="geometry" />
        </mxCell>
        <mxCell id="COjROIzj7fQn3aTDEkL4-33" value="" style="shape=partialRectangle;html=1;whiteSpace=wrap;connectable=0;overflow=hidden;fillColor=none;top=0;left=0;bottom=0;right=0;" vertex="1" parent="COjROIzj7fQn3aTDEkL4-29">
          <mxGeometry x="51" width="18" height="17" as="geometry" />
        </mxCell>
        <mxCell id="COjROIzj7fQn3aTDEkL4-34" value="" style="shape=partialRectangle;html=1;whiteSpace=wrap;connectable=0;overflow=hidden;fillColor=none;top=0;left=0;bottom=0;right=0;" vertex="1" parent="COjROIzj7fQn3aTDEkL4-29">
          <mxGeometry x="69" width="17" height="17" as="geometry" />
        </mxCell>
        <mxCell id="COjROIzj7fQn3aTDEkL4-35" value="" style="shape=partialRectangle;html=1;whiteSpace=wrap;connectable=0;overflow=hidden;fillColor=none;top=0;left=0;bottom=0;right=0;" vertex="1" parent="COjROIzj7fQn3aTDEkL4-29">
          <mxGeometry x="86" width="17" height="17" as="geometry" />
        </mxCell>
        <mxCell id="COjROIzj7fQn3aTDEkL4-36" value="" style="shape=partialRectangle;html=1;whiteSpace=wrap;connectable=0;overflow=hidden;fillColor=none;top=0;left=0;bottom=0;right=0;" vertex="1" parent="COjROIzj7fQn3aTDEkL4-29">
          <mxGeometry x="103" width="17" height="17" as="geometry" />
        </mxCell>
        <mxCell id="COjROIzj7fQn3aTDEkL4-37" value="" style="shape=partialRectangle;html=1;whiteSpace=wrap;collapsible=0;dropTarget=0;pointerEvents=0;fillColor=none;top=0;left=0;bottom=0;right=0;points=[[0,0.5],[1,0.5]];portConstraint=eastwest;" vertex="1" parent="COjROIzj7fQn3aTDEkL4-12">
          <mxGeometry y="51" width="120" height="18" as="geometry" />
        </mxCell>
        <mxCell id="COjROIzj7fQn3aTDEkL4-38" value="" style="shape=partialRectangle;html=1;whiteSpace=wrap;connectable=0;overflow=hidden;fillColor=none;top=0;left=0;bottom=0;right=0;" vertex="1" parent="COjROIzj7fQn3aTDEkL4-37">
          <mxGeometry width="17" height="18" as="geometry" />
        </mxCell>
        <mxCell id="COjROIzj7fQn3aTDEkL4-39" value="" style="shape=partialRectangle;html=1;whiteSpace=wrap;connectable=0;overflow=hidden;fillColor=none;top=0;left=0;bottom=0;right=0;" vertex="1" parent="COjROIzj7fQn3aTDEkL4-37">
          <mxGeometry x="17" width="17" height="18" as="geometry" />
        </mxCell>
        <mxCell id="COjROIzj7fQn3aTDEkL4-40" value="" style="shape=partialRectangle;html=1;whiteSpace=wrap;connectable=0;overflow=hidden;fillColor=none;top=0;left=0;bottom=0;right=0;" vertex="1" parent="COjROIzj7fQn3aTDEkL4-37">
          <mxGeometry x="34" width="17" height="18" as="geometry" />
        </mxCell>
        <mxCell id="COjROIzj7fQn3aTDEkL4-41" value="" style="shape=partialRectangle;html=1;whiteSpace=wrap;connectable=0;overflow=hidden;fillColor=none;top=0;left=0;bottom=0;right=0;" vertex="1" parent="COjROIzj7fQn3aTDEkL4-37">
          <mxGeometry x="51" width="18" height="18" as="geometry" />
        </mxCell>
        <mxCell id="COjROIzj7fQn3aTDEkL4-42" value="" style="shape=partialRectangle;html=1;whiteSpace=wrap;connectable=0;overflow=hidden;fillColor=none;top=0;left=0;bottom=0;right=0;" vertex="1" parent="COjROIzj7fQn3aTDEkL4-37">
          <mxGeometry x="69" width="17" height="18" as="geometry" />
        </mxCell>
        <mxCell id="COjROIzj7fQn3aTDEkL4-43" value="" style="shape=partialRectangle;html=1;whiteSpace=wrap;connectable=0;overflow=hidden;fillColor=none;top=0;left=0;bottom=0;right=0;" vertex="1" parent="COjROIzj7fQn3aTDEkL4-37">
          <mxGeometry x="86" width="17" height="18" as="geometry" />
        </mxCell>
        <mxCell id="COjROIzj7fQn3aTDEkL4-44" value="" style="shape=partialRectangle;html=1;whiteSpace=wrap;connectable=0;overflow=hidden;fillColor=none;top=0;left=0;bottom=0;right=0;" vertex="1" parent="COjROIzj7fQn3aTDEkL4-37">
          <mxGeometry x="103" width="17" height="18" as="geometry" />
        </mxCell>
        <mxCell id="COjROIzj7fQn3aTDEkL4-45" value="" style="shape=partialRectangle;html=1;whiteSpace=wrap;collapsible=0;dropTarget=0;pointerEvents=0;fillColor=none;top=0;left=0;bottom=0;right=0;points=[[0,0.5],[1,0.5]];portConstraint=eastwest;" vertex="1" parent="COjROIzj7fQn3aTDEkL4-12">
          <mxGeometry y="69" width="120" height="17" as="geometry" />
        </mxCell>
        <mxCell id="COjROIzj7fQn3aTDEkL4-46" value="" style="shape=partialRectangle;html=1;whiteSpace=wrap;connectable=0;overflow=hidden;fillColor=none;top=0;left=0;bottom=0;right=0;" vertex="1" parent="COjROIzj7fQn3aTDEkL4-45">
          <mxGeometry width="17" height="17" as="geometry" />
        </mxCell>
        <mxCell id="COjROIzj7fQn3aTDEkL4-47" value="" style="shape=partialRectangle;html=1;whiteSpace=wrap;connectable=0;overflow=hidden;fillColor=none;top=0;left=0;bottom=0;right=0;" vertex="1" parent="COjROIzj7fQn3aTDEkL4-45">
          <mxGeometry x="17" width="17" height="17" as="geometry" />
        </mxCell>
        <mxCell id="COjROIzj7fQn3aTDEkL4-48" value="" style="shape=partialRectangle;html=1;whiteSpace=wrap;connectable=0;overflow=hidden;fillColor=none;top=0;left=0;bottom=0;right=0;" vertex="1" parent="COjROIzj7fQn3aTDEkL4-45">
          <mxGeometry x="34" width="17" height="17" as="geometry" />
        </mxCell>
        <mxCell id="COjROIzj7fQn3aTDEkL4-49" value="" style="shape=partialRectangle;html=1;whiteSpace=wrap;connectable=0;overflow=hidden;fillColor=none;top=0;left=0;bottom=0;right=0;" vertex="1" parent="COjROIzj7fQn3aTDEkL4-45">
          <mxGeometry x="51" width="18" height="17" as="geometry" />
        </mxCell>
        <mxCell id="COjROIzj7fQn3aTDEkL4-50" value="" style="shape=partialRectangle;html=1;whiteSpace=wrap;connectable=0;overflow=hidden;fillColor=none;top=0;left=0;bottom=0;right=0;" vertex="1" parent="COjROIzj7fQn3aTDEkL4-45">
          <mxGeometry x="69" width="17" height="17" as="geometry" />
        </mxCell>
        <mxCell id="COjROIzj7fQn3aTDEkL4-51" value="" style="shape=partialRectangle;html=1;whiteSpace=wrap;connectable=0;overflow=hidden;fillColor=none;top=0;left=0;bottom=0;right=0;" vertex="1" parent="COjROIzj7fQn3aTDEkL4-45">
          <mxGeometry x="86" width="17" height="17" as="geometry" />
        </mxCell>
        <mxCell id="COjROIzj7fQn3aTDEkL4-52" value="" style="shape=partialRectangle;html=1;whiteSpace=wrap;connectable=0;overflow=hidden;fillColor=none;top=0;left=0;bottom=0;right=0;" vertex="1" parent="COjROIzj7fQn3aTDEkL4-45">
          <mxGeometry x="103" width="17" height="17" as="geometry" />
        </mxCell>
        <mxCell id="COjROIzj7fQn3aTDEkL4-53" value="" style="shape=partialRectangle;html=1;whiteSpace=wrap;collapsible=0;dropTarget=0;pointerEvents=0;fillColor=none;top=0;left=0;bottom=0;right=0;points=[[0,0.5],[1,0.5]];portConstraint=eastwest;" vertex="1" parent="COjROIzj7fQn3aTDEkL4-12">
          <mxGeometry y="86" width="120" height="17" as="geometry" />
        </mxCell>
        <mxCell id="COjROIzj7fQn3aTDEkL4-54" value="" style="shape=partialRectangle;html=1;whiteSpace=wrap;connectable=0;overflow=hidden;fillColor=none;top=0;left=0;bottom=0;right=0;" vertex="1" parent="COjROIzj7fQn3aTDEkL4-53">
          <mxGeometry width="17" height="17" as="geometry" />
        </mxCell>
        <mxCell id="COjROIzj7fQn3aTDEkL4-55" value="" style="shape=partialRectangle;html=1;whiteSpace=wrap;connectable=0;overflow=hidden;fillColor=none;top=0;left=0;bottom=0;right=0;" vertex="1" parent="COjROIzj7fQn3aTDEkL4-53">
          <mxGeometry x="17" width="17" height="17" as="geometry" />
        </mxCell>
        <mxCell id="COjROIzj7fQn3aTDEkL4-56" value="" style="shape=partialRectangle;html=1;whiteSpace=wrap;connectable=0;overflow=hidden;fillColor=none;top=0;left=0;bottom=0;right=0;" vertex="1" parent="COjROIzj7fQn3aTDEkL4-53">
          <mxGeometry x="34" width="17" height="17" as="geometry" />
        </mxCell>
        <mxCell id="COjROIzj7fQn3aTDEkL4-57" value="" style="shape=partialRectangle;html=1;whiteSpace=wrap;connectable=0;overflow=hidden;fillColor=none;top=0;left=0;bottom=0;right=0;" vertex="1" parent="COjROIzj7fQn3aTDEkL4-53">
          <mxGeometry x="51" width="18" height="17" as="geometry" />
        </mxCell>
        <mxCell id="COjROIzj7fQn3aTDEkL4-58" value="" style="shape=partialRectangle;html=1;whiteSpace=wrap;connectable=0;overflow=hidden;fillColor=none;top=0;left=0;bottom=0;right=0;" vertex="1" parent="COjROIzj7fQn3aTDEkL4-53">
          <mxGeometry x="69" width="17" height="17" as="geometry" />
        </mxCell>
        <mxCell id="COjROIzj7fQn3aTDEkL4-59" value="" style="shape=partialRectangle;html=1;whiteSpace=wrap;connectable=0;overflow=hidden;fillColor=none;top=0;left=0;bottom=0;right=0;" vertex="1" parent="COjROIzj7fQn3aTDEkL4-53">
          <mxGeometry x="86" width="17" height="17" as="geometry" />
        </mxCell>
        <mxCell id="COjROIzj7fQn3aTDEkL4-60" value="" style="shape=partialRectangle;html=1;whiteSpace=wrap;connectable=0;overflow=hidden;fillColor=none;top=0;left=0;bottom=0;right=0;" vertex="1" parent="COjROIzj7fQn3aTDEkL4-53">
          <mxGeometry x="103" width="17" height="17" as="geometry" />
        </mxCell>
        <mxCell id="COjROIzj7fQn3aTDEkL4-61" value="" style="shape=partialRectangle;html=1;whiteSpace=wrap;collapsible=0;dropTarget=0;pointerEvents=0;fillColor=none;top=0;left=0;bottom=0;right=0;points=[[0,0.5],[1,0.5]];portConstraint=eastwest;" vertex="1" parent="COjROIzj7fQn3aTDEkL4-12">
          <mxGeometry y="103" width="120" height="17" as="geometry" />
        </mxCell>
        <mxCell id="COjROIzj7fQn3aTDEkL4-62" value="" style="shape=partialRectangle;html=1;whiteSpace=wrap;connectable=0;overflow=hidden;fillColor=none;top=0;left=0;bottom=0;right=0;" vertex="1" parent="COjROIzj7fQn3aTDEkL4-61">
          <mxGeometry width="17" height="17" as="geometry" />
        </mxCell>
        <mxCell id="COjROIzj7fQn3aTDEkL4-63" value="" style="shape=partialRectangle;html=1;whiteSpace=wrap;connectable=0;overflow=hidden;fillColor=none;top=0;left=0;bottom=0;right=0;" vertex="1" parent="COjROIzj7fQn3aTDEkL4-61">
          <mxGeometry x="17" width="17" height="17" as="geometry" />
        </mxCell>
        <mxCell id="COjROIzj7fQn3aTDEkL4-64" value="" style="shape=partialRectangle;html=1;whiteSpace=wrap;connectable=0;overflow=hidden;fillColor=none;top=0;left=0;bottom=0;right=0;" vertex="1" parent="COjROIzj7fQn3aTDEkL4-61">
          <mxGeometry x="34" width="17" height="17" as="geometry" />
        </mxCell>
        <mxCell id="COjROIzj7fQn3aTDEkL4-65" value="" style="shape=partialRectangle;html=1;whiteSpace=wrap;connectable=0;overflow=hidden;fillColor=none;top=0;left=0;bottom=0;right=0;" vertex="1" parent="COjROIzj7fQn3aTDEkL4-61">
          <mxGeometry x="51" width="18" height="17" as="geometry" />
        </mxCell>
        <mxCell id="COjROIzj7fQn3aTDEkL4-66" value="" style="shape=partialRectangle;html=1;whiteSpace=wrap;connectable=0;overflow=hidden;fillColor=none;top=0;left=0;bottom=0;right=0;" vertex="1" parent="COjROIzj7fQn3aTDEkL4-61">
          <mxGeometry x="69" width="17" height="17" as="geometry" />
        </mxCell>
        <mxCell id="COjROIzj7fQn3aTDEkL4-67" value="" style="shape=partialRectangle;html=1;whiteSpace=wrap;connectable=0;overflow=hidden;fillColor=none;top=0;left=0;bottom=0;right=0;" vertex="1" parent="COjROIzj7fQn3aTDEkL4-61">
          <mxGeometry x="86" width="17" height="17" as="geometry" />
        </mxCell>
        <mxCell id="COjROIzj7fQn3aTDEkL4-68" value="" style="shape=partialRectangle;html=1;whiteSpace=wrap;connectable=0;overflow=hidden;fillColor=none;top=0;left=0;bottom=0;right=0;" vertex="1" parent="COjROIzj7fQn3aTDEkL4-61">
          <mxGeometry x="103" width="17" height="17" as="geometry" />
        </mxCell>
        <mxCell id="COjROIzj7fQn3aTDEkL4-69" value="" style="endArrow=none;html=1;exitX=1;exitY=0;exitDx=0;exitDy=0;entryX=0;entryY=0.059;entryDx=0;entryDy=0;entryPerimeter=0;" edge="1" parent="1" source="COjROIzj7fQn3aTDEkL4-75" target="COjROIzj7fQn3aTDEkL4-13">
          <mxGeometry width="50" height="50" relative="1" as="geometry">
            <mxPoint x="240" y="270" as="sourcePoint" />
            <mxPoint x="250" y="151" as="targetPoint" />
          </mxGeometry>
        </mxCell>
        <mxCell id="COjROIzj7fQn3aTDEkL4-6" value="" style="whiteSpace=wrap;html=1;aspect=fixed;fillColor=#dae8fc;strokeColor=#6c8ebf;" vertex="1" parent="1">
          <mxGeometry x="140" y="201" width="23.71886172717495" height="23.71886172717495" as="geometry" />
        </mxCell>
        <mxCell id="COjROIzj7fQn3aTDEkL4-7" value="" style="whiteSpace=wrap;html=1;aspect=fixed;fillColor=#dae8fc;strokeColor=#6c8ebf;" vertex="1" parent="1">
          <mxGeometry x="142.39281458012385" y="203.87408614137325" width="23.71886172717495" height="23.71886172717495" as="geometry" />
        </mxCell>
        <mxCell id="COjROIzj7fQn3aTDEkL4-70" value="" style="whiteSpace=wrap;html=1;aspect=fixed;fillColor=#dae8fc;strokeColor=#6c8ebf;" vertex="1" parent="1">
          <mxGeometry x="145.28113827282505" y="206.03953432987083" width="23.71886172717495" height="23.71886172717495" as="geometry" />
        </mxCell>
        <mxCell id="COjROIzj7fQn3aTDEkL4-76" value="" style="group" vertex="1" connectable="0" parent="1">
          <mxGeometry x="190" y="210" width="20" height="22.78" as="geometry" />
        </mxCell>
        <mxCell id="COjROIzj7fQn3aTDEkL4-73" value="" style="whiteSpace=wrap;html=1;aspect=fixed;fillColor=#dae8fc;strokeColor=#6c8ebf;" vertex="1" parent="COjROIzj7fQn3aTDEkL4-76">
          <mxGeometry width="16.35783567391376" height="16.35783567391376" as="geometry" />
        </mxCell>
        <mxCell id="COjROIzj7fQn3aTDEkL4-74" value="" style="whiteSpace=wrap;html=1;aspect=fixed;fillColor=#dae8fc;strokeColor=#6c8ebf;" vertex="1" parent="COjROIzj7fQn3aTDEkL4-76">
          <mxGeometry x="1.6502169518095549" y="2.2766110519728455" width="16.35783567391376" height="16.35783567391376" as="geometry" />
        </mxCell>
        <mxCell id="COjROIzj7fQn3aTDEkL4-75" value="" style="whiteSpace=wrap;html=1;aspect=fixed;fillColor=#dae8fc;strokeColor=#6c8ebf;" vertex="1" parent="COjROIzj7fQn3aTDEkL4-76">
          <mxGeometry x="3.642164326086239" y="3.991898289693785" width="16.35783567391376" height="16.35783567391376" as="geometry" />
        </mxCell>
        <mxCell id="COjROIzj7fQn3aTDEkL4-78" value="" style="endArrow=none;dashed=1;html=1;dashPattern=1 4;" edge="1" parent="1">
          <mxGeometry width="50" height="50" relative="1" as="geometry">
            <mxPoint x="174.5" y="229.76" as="sourcePoint" />
            <mxPoint x="185.5" y="229.88" as="targetPoint" />
          </mxGeometry>
        </mxCell>
        <mxCell id="COjROIzj7fQn3aTDEkL4-80" value="" style="endArrow=none;html=1;exitX=1;exitY=1;exitDx=0;exitDy=0;entryX=0.005;entryY=1.023;entryDx=0;entryDy=0;entryPerimeter=0;" edge="1" parent="1" source="COjROIzj7fQn3aTDEkL4-75" target="COjROIzj7fQn3aTDEkL4-61">
          <mxGeometry width="50" height="50" relative="1" as="geometry">
            <mxPoint x="240" y="250" as="sourcePoint" />
            <mxPoint x="290" y="200" as="targetPoint" />
          </mxGeometry>
        </mxCell>
        <mxCell id="COjROIzj7fQn3aTDEkL4-81" value="" style="whiteSpace=wrap;html=1;aspect=fixed;fillColor=none;strokeColor=#A680B8;strokeWidth=2;" vertex="1" parent="1">
          <mxGeometry x="258" y="150" width="50" height="50" as="geometry" />
        </mxCell>
        <mxCell id="COjROIzj7fQn3aTDEkL4-82" value="" style="rounded=0;whiteSpace=wrap;html=1;strokeColor=#9673a6;strokeWidth=2;fillColor=#e1d5e7;" vertex="1" parent="1">
          <mxGeometry x="410" y="100" width="120" height="20" as="geometry" />
        </mxCell>
        <mxCell id="COjROIzj7fQn3aTDEkL4-83" value="" style="rounded=0;whiteSpace=wrap;html=1;strokeColor=#9673a6;strokeWidth=2;fillColor=#e1d5e7;" vertex="1" parent="1">
          <mxGeometry x="410" y="140" width="120" height="20" as="geometry" />
        </mxCell>
        <mxCell id="COjROIzj7fQn3aTDEkL4-84" value="" style="rounded=0;whiteSpace=wrap;html=1;strokeColor=#d6b656;strokeWidth=2;fillColor=#fff2cc;" vertex="1" parent="1">
          <mxGeometry x="410" y="180" width="120" height="20" as="geometry" />
        </mxCell>
        <mxCell id="COjROIzj7fQn3aTDEkL4-85" value="" style="rounded=0;whiteSpace=wrap;html=1;strokeColor=#9673a6;strokeWidth=2;fillColor=#e1d5e7;" vertex="1" parent="1">
          <mxGeometry x="410" y="220" width="120" height="20" as="geometry" />
        </mxCell>
        <mxCell id="COjROIzj7fQn3aTDEkL4-86" value="" style="rounded=0;whiteSpace=wrap;html=1;strokeColor=#9673a6;strokeWidth=2;fillColor=#e1d5e7;" vertex="1" parent="1">
          <mxGeometry x="410" y="260" width="120" height="20" as="geometry" />
        </mxCell>
        <mxCell id="COjROIzj7fQn3aTDEkL4-87" value="" style="rounded=0;whiteSpace=wrap;html=1;strokeColor=#9673a6;strokeWidth=2;fillColor=#e1d5e7;" vertex="1" parent="1">
          <mxGeometry x="410" y="300" width="120" height="20" as="geometry" />
        </mxCell>
        <mxCell id="COjROIzj7fQn3aTDEkL4-88" value="" style="rounded=0;whiteSpace=wrap;html=1;strokeColor=#9673a6;strokeWidth=2;fillColor=#e1d5e7;" vertex="1" parent="1">
          <mxGeometry x="410" y="340" width="120" height="20" as="geometry" />
        </mxCell>
        <mxCell id="COjROIzj7fQn3aTDEkL4-89" value="" style="shape=table;html=1;whiteSpace=wrap;startSize=0;container=1;collapsible=0;childLayout=tableLayout;" vertex="1" parent="1">
          <mxGeometry x="570" y="112" width="20" height="260" as="geometry" />
        </mxCell>
        <mxCell id="COjROIzj7fQn3aTDEkL4-90" value="" style="shape=partialRectangle;html=1;whiteSpace=wrap;collapsible=0;dropTarget=0;pointerEvents=0;fillColor=none;top=0;left=0;bottom=0;right=0;points=[[0,0.5],[1,0.5]];portConstraint=eastwest;" vertex="1" parent="COjROIzj7fQn3aTDEkL4-89">
          <mxGeometry width="20" height="19" as="geometry" />
        </mxCell>
        <mxCell id="COjROIzj7fQn3aTDEkL4-91" value="" style="shape=partialRectangle;html=1;whiteSpace=wrap;connectable=0;overflow=hidden;fillColor=none;top=0;left=0;bottom=0;right=0;" vertex="1" parent="COjROIzj7fQn3aTDEkL4-90">
          <mxGeometry width="20" height="19" as="geometry" />
        </mxCell>
        <mxCell id="COjROIzj7fQn3aTDEkL4-92" value="" style="shape=partialRectangle;html=1;whiteSpace=wrap;collapsible=0;dropTarget=0;pointerEvents=0;fillColor=none;top=0;left=0;bottom=0;right=0;points=[[0,0.5],[1,0.5]];portConstraint=eastwest;" vertex="1" parent="COjROIzj7fQn3aTDEkL4-89">
          <mxGeometry y="19" width="20" height="18" as="geometry" />
        </mxCell>
        <mxCell id="COjROIzj7fQn3aTDEkL4-93" value="" style="shape=partialRectangle;html=1;whiteSpace=wrap;connectable=0;overflow=hidden;fillColor=none;top=0;left=0;bottom=0;right=0;" vertex="1" parent="COjROIzj7fQn3aTDEkL4-92">
          <mxGeometry width="20" height="18" as="geometry" />
        </mxCell>
        <mxCell id="COjROIzj7fQn3aTDEkL4-94" value="" style="shape=partialRectangle;html=1;whiteSpace=wrap;collapsible=0;dropTarget=0;pointerEvents=0;fillColor=none;top=0;left=0;bottom=0;right=0;points=[[0,0.5],[1,0.5]];portConstraint=eastwest;" vertex="1" parent="COjROIzj7fQn3aTDEkL4-89">
          <mxGeometry y="37" width="20" height="19" as="geometry" />
        </mxCell>
        <mxCell id="COjROIzj7fQn3aTDEkL4-95" value="" style="shape=partialRectangle;html=1;whiteSpace=wrap;connectable=0;overflow=hidden;fillColor=none;top=0;left=0;bottom=0;right=0;" vertex="1" parent="COjROIzj7fQn3aTDEkL4-94">
          <mxGeometry width="20" height="19" as="geometry" />
        </mxCell>
        <mxCell id="COjROIzj7fQn3aTDEkL4-96" value="" style="shape=partialRectangle;html=1;whiteSpace=wrap;collapsible=0;dropTarget=0;pointerEvents=0;fillColor=none;top=0;left=0;bottom=0;right=0;points=[[0,0.5],[1,0.5]];portConstraint=eastwest;" vertex="1" parent="COjROIzj7fQn3aTDEkL4-89">
          <mxGeometry y="56" width="20" height="18" as="geometry" />
        </mxCell>
        <mxCell id="COjROIzj7fQn3aTDEkL4-97" value="" style="shape=partialRectangle;html=1;whiteSpace=wrap;connectable=0;overflow=hidden;fillColor=none;top=0;left=0;bottom=0;right=0;" vertex="1" parent="COjROIzj7fQn3aTDEkL4-96">
          <mxGeometry width="20" height="18" as="geometry" />
        </mxCell>
        <mxCell id="COjROIzj7fQn3aTDEkL4-98" value="" style="shape=partialRectangle;html=1;whiteSpace=wrap;collapsible=0;dropTarget=0;pointerEvents=0;fillColor=none;top=0;left=0;bottom=0;right=0;points=[[0,0.5],[1,0.5]];portConstraint=eastwest;" vertex="1" parent="COjROIzj7fQn3aTDEkL4-89">
          <mxGeometry y="74" width="20" height="19" as="geometry" />
        </mxCell>
        <mxCell id="COjROIzj7fQn3aTDEkL4-99" value="" style="shape=partialRectangle;html=1;whiteSpace=wrap;connectable=0;overflow=hidden;fillColor=none;top=0;left=0;bottom=0;right=0;" vertex="1" parent="COjROIzj7fQn3aTDEkL4-98">
          <mxGeometry width="20" height="19" as="geometry" />
        </mxCell>
        <mxCell id="COjROIzj7fQn3aTDEkL4-100" value="" style="shape=partialRectangle;html=1;whiteSpace=wrap;collapsible=0;dropTarget=0;pointerEvents=0;fillColor=none;top=0;left=0;bottom=0;right=0;points=[[0,0.5],[1,0.5]];portConstraint=eastwest;" vertex="1" parent="COjROIzj7fQn3aTDEkL4-89">
          <mxGeometry y="93" width="20" height="18" as="geometry" />
        </mxCell>
        <mxCell id="COjROIzj7fQn3aTDEkL4-101" value="" style="shape=partialRectangle;html=1;whiteSpace=wrap;connectable=0;overflow=hidden;fillColor=none;top=0;left=0;bottom=0;right=0;" vertex="1" parent="COjROIzj7fQn3aTDEkL4-100">
          <mxGeometry width="20" height="18" as="geometry" />
        </mxCell>
        <mxCell id="COjROIzj7fQn3aTDEkL4-102" value="" style="shape=partialRectangle;html=1;whiteSpace=wrap;collapsible=0;dropTarget=0;pointerEvents=0;fillColor=none;top=0;left=0;bottom=0;right=0;points=[[0,0.5],[1,0.5]];portConstraint=eastwest;" vertex="1" parent="COjROIzj7fQn3aTDEkL4-89">
          <mxGeometry y="111" width="20" height="19" as="geometry" />
        </mxCell>
        <mxCell id="COjROIzj7fQn3aTDEkL4-103" value="" style="shape=partialRectangle;html=1;whiteSpace=wrap;connectable=0;overflow=hidden;fillColor=none;top=0;left=0;bottom=0;right=0;" vertex="1" parent="COjROIzj7fQn3aTDEkL4-102">
          <mxGeometry width="20" height="19" as="geometry" />
        </mxCell>
        <mxCell id="COjROIzj7fQn3aTDEkL4-104" value="" style="shape=partialRectangle;html=1;whiteSpace=wrap;collapsible=0;dropTarget=0;pointerEvents=0;fillColor=none;top=0;left=0;bottom=0;right=0;points=[[0,0.5],[1,0.5]];portConstraint=eastwest;" vertex="1" parent="COjROIzj7fQn3aTDEkL4-89">
          <mxGeometry y="130" width="20" height="19" as="geometry" />
        </mxCell>
        <mxCell id="COjROIzj7fQn3aTDEkL4-105" value="" style="shape=partialRectangle;html=1;whiteSpace=wrap;connectable=0;overflow=hidden;fillColor=none;top=0;left=0;bottom=0;right=0;" vertex="1" parent="COjROIzj7fQn3aTDEkL4-104">
          <mxGeometry width="20" height="19" as="geometry" />
        </mxCell>
        <mxCell id="COjROIzj7fQn3aTDEkL4-106" value="" style="shape=partialRectangle;html=1;whiteSpace=wrap;collapsible=0;dropTarget=0;pointerEvents=0;fillColor=none;top=0;left=0;bottom=0;right=0;points=[[0,0.5],[1,0.5]];portConstraint=eastwest;" vertex="1" parent="COjROIzj7fQn3aTDEkL4-89">
          <mxGeometry y="149" width="20" height="18" as="geometry" />
        </mxCell>
        <mxCell id="COjROIzj7fQn3aTDEkL4-107" value="" style="shape=partialRectangle;html=1;whiteSpace=wrap;connectable=0;overflow=hidden;fillColor=none;top=0;left=0;bottom=0;right=0;" vertex="1" parent="COjROIzj7fQn3aTDEkL4-106">
          <mxGeometry width="20" height="18" as="geometry" />
        </mxCell>
        <mxCell id="COjROIzj7fQn3aTDEkL4-108" value="" style="shape=partialRectangle;html=1;whiteSpace=wrap;collapsible=0;dropTarget=0;pointerEvents=0;fillColor=none;top=0;left=0;bottom=0;right=0;points=[[0,0.5],[1,0.5]];portConstraint=eastwest;" vertex="1" parent="COjROIzj7fQn3aTDEkL4-89">
          <mxGeometry y="167" width="20" height="19" as="geometry" />
        </mxCell>
        <mxCell id="COjROIzj7fQn3aTDEkL4-109" value="" style="shape=partialRectangle;html=1;whiteSpace=wrap;connectable=0;overflow=hidden;fillColor=none;top=0;left=0;bottom=0;right=0;" vertex="1" parent="COjROIzj7fQn3aTDEkL4-108">
          <mxGeometry width="20" height="19" as="geometry" />
        </mxCell>
        <mxCell id="COjROIzj7fQn3aTDEkL4-110" value="" style="shape=partialRectangle;html=1;whiteSpace=wrap;collapsible=0;dropTarget=0;pointerEvents=0;fillColor=none;top=0;left=0;bottom=0;right=0;points=[[0,0.5],[1,0.5]];portConstraint=eastwest;" vertex="1" parent="COjROIzj7fQn3aTDEkL4-89">
          <mxGeometry y="186" width="20" height="18" as="geometry" />
        </mxCell>
        <mxCell id="COjROIzj7fQn3aTDEkL4-111" value="" style="shape=partialRectangle;html=1;whiteSpace=wrap;connectable=0;overflow=hidden;fillColor=none;top=0;left=0;bottom=0;right=0;" vertex="1" parent="COjROIzj7fQn3aTDEkL4-110">
          <mxGeometry width="20" height="18" as="geometry" />
        </mxCell>
        <mxCell id="COjROIzj7fQn3aTDEkL4-112" value="" style="shape=partialRectangle;html=1;whiteSpace=wrap;collapsible=0;dropTarget=0;pointerEvents=0;fillColor=none;top=0;left=0;bottom=0;right=0;points=[[0,0.5],[1,0.5]];portConstraint=eastwest;" vertex="1" parent="COjROIzj7fQn3aTDEkL4-89">
          <mxGeometry y="204" width="20" height="19" as="geometry" />
        </mxCell>
        <mxCell id="COjROIzj7fQn3aTDEkL4-113" value="" style="shape=partialRectangle;html=1;whiteSpace=wrap;connectable=0;overflow=hidden;fillColor=none;top=0;left=0;bottom=0;right=0;" vertex="1" parent="COjROIzj7fQn3aTDEkL4-112">
          <mxGeometry width="20" height="19" as="geometry" />
        </mxCell>
        <mxCell id="COjROIzj7fQn3aTDEkL4-114" value="" style="shape=partialRectangle;html=1;whiteSpace=wrap;collapsible=0;dropTarget=0;pointerEvents=0;fillColor=none;top=0;left=0;bottom=0;right=0;points=[[0,0.5],[1,0.5]];portConstraint=eastwest;" vertex="1" parent="COjROIzj7fQn3aTDEkL4-89">
          <mxGeometry y="223" width="20" height="18" as="geometry" />
        </mxCell>
        <mxCell id="COjROIzj7fQn3aTDEkL4-115" value="" style="shape=partialRectangle;html=1;whiteSpace=wrap;connectable=0;overflow=hidden;fillColor=none;top=0;left=0;bottom=0;right=0;" vertex="1" parent="COjROIzj7fQn3aTDEkL4-114">
          <mxGeometry width="20" height="18" as="geometry" />
        </mxCell>
        <mxCell id="COjROIzj7fQn3aTDEkL4-116" value="" style="shape=partialRectangle;html=1;whiteSpace=wrap;collapsible=0;dropTarget=0;pointerEvents=0;fillColor=none;top=0;left=0;bottom=0;right=0;points=[[0,0.5],[1,0.5]];portConstraint=eastwest;" vertex="1" parent="COjROIzj7fQn3aTDEkL4-89">
          <mxGeometry y="241" width="20" height="19" as="geometry" />
        </mxCell>
        <mxCell id="COjROIzj7fQn3aTDEkL4-117" value="" style="shape=partialRectangle;html=1;whiteSpace=wrap;connectable=0;overflow=hidden;fillColor=none;top=0;left=0;bottom=0;right=0;" vertex="1" parent="COjROIzj7fQn3aTDEkL4-116">
          <mxGeometry width="20" height="19" as="geometry" />
        </mxCell>
        <mxCell id="COjROIzj7fQn3aTDEkL4-118" value="" style="rounded=0;whiteSpace=wrap;html=1;strokeColor=#82b366;fillColor=#d5e8d4;" vertex="1" parent="1">
          <mxGeometry x="631" y="32" width="10" height="100" as="geometry" />
        </mxCell>
        <mxCell id="COjROIzj7fQn3aTDEkL4-119" value="" style="rounded=0;whiteSpace=wrap;html=1;strokeColor=#6c8ebf;fillColor=#dae8fc;" vertex="1" parent="1">
          <mxGeometry x="631" y="152.00000000000003" width="10" height="100" as="geometry" />
        </mxCell>
        <mxCell id="COjROIzj7fQn3aTDEkL4-120" value="" style="rounded=0;whiteSpace=wrap;html=1;strokeColor=#d79b00;fillColor=#ffe6cc;" vertex="1" parent="1">
          <mxGeometry x="631" y="272" width="10" height="100" as="geometry" />
        </mxCell>
        <mxCell id="COjROIzj7fQn3aTDEkL4-122" value="&lt;font style=&quot;font-size: 10.5px&quot;&gt;BLSTM&lt;/font&gt;" style="text;html=1;align=center;verticalAlign=middle;resizable=0;points=[];autosize=1;fontSize=10.5;" vertex="1" parent="1">
          <mxGeometry x="440" y="380" width="60" height="20" as="geometry" />
        </mxCell>
        <mxCell id="COjROIzj7fQn3aTDEkL4-123" value="" style="endArrow=classic;html=1;" edge="1" parent="1">
          <mxGeometry width="50" height="50" relative="1" as="geometry">
            <mxPoint x="370" y="210.28999999999996" as="sourcePoint" />
            <mxPoint x="390" y="210" as="targetPoint" />
          </mxGeometry>
        </mxCell>
        <mxCell id="COjROIzj7fQn3aTDEkL4-124" value="" style="endArrow=classic;html=1;" edge="1" parent="1">
          <mxGeometry width="50" height="50" relative="1" as="geometry">
            <mxPoint x="546" y="210.28999999999996" as="sourcePoint" />
            <mxPoint x="566" y="210" as="targetPoint" />
          </mxGeometry>
        </mxCell>
        <mxCell id="COjROIzj7fQn3aTDEkL4-125" value="" style="endArrow=classic;html=1;" edge="1" parent="1">
          <mxGeometry width="50" height="50" relative="1" as="geometry">
            <mxPoint x="600" y="210.28999999999996" as="sourcePoint" />
            <mxPoint x="620" y="210" as="targetPoint" />
          </mxGeometry>
        </mxCell>
        <mxCell id="COjROIzj7fQn3aTDEkL4-126" value="&lt;font style=&quot;font-size: 10.5px&quot;&gt;全连接&lt;br&gt;&lt;/font&gt;" style="text;html=1;align=center;verticalAlign=middle;resizable=0;points=[];autosize=1;fontSize=10.5;" vertex="1" parent="1">
          <mxGeometry x="555" y="380" width="50" height="20" as="geometry" />
        </mxCell>
        <mxCell id="COjROIzj7fQn3aTDEkL4-127" value="&lt;font style=&quot;font-size: 10.5px&quot;&gt;预测&lt;br&gt;&lt;/font&gt;" style="text;html=1;align=center;verticalAlign=middle;resizable=0;points=[];autosize=1;fontSize=10.5;" vertex="1" parent="1">
          <mxGeometry x="616" y="380" width="40" height="20" as="geometry" />
        </mxCell>
        <mxCell id="COjROIzj7fQn3aTDEkL4-129" value="" style="endArrow=classic;html=1;" edge="1" parent="1">
          <mxGeometry width="50" height="50" relative="1" as="geometry">
            <mxPoint x="650" y="210.28999999999996" as="sourcePoint" />
            <mxPoint x="700" y="210" as="targetPoint" />
          </mxGeometry>
        </mxCell>
        <mxCell id="COjROIzj7fQn3aTDEkL4-130" value="&lt;font style=&quot;font-size: 10.5px&quot;&gt;输出&lt;br&gt;&lt;/font&gt;" style="text;html=1;align=center;verticalAlign=middle;resizable=0;points=[];autosize=1;fontSize=10.5;" vertex="1" parent="1">
          <mxGeometry x="650" y="186.04" width="40" height="20" as="geometry" />
        </mxCell>
      </root>
    </mxGraphModel>
  </diagram>
</mxfile>
